STARTFONT 2.1
FONT -nil-ariafont-Medium-R-Normal--16-120-96-96-M-100-iso8859-1
SIZE 12 96 96
FONTBOUNDINGBOX 7 13 0 -3
STARTPROPERTIES 17
POINT_SIZE 120
PIXEL_SIZE 16
RESOLUTION_X 96
RESOLUTION_Y 96
FONT_ASCENT 11
FONT_DESCENT 3
AVERAGE_WIDTH 100
SPACING "M"
_GBDFED_INFO "Edited with gbdfed 1.6."
FOUNDRY "nil"
FAMILY_NAME "ariafont"
WEIGHT_NAME "Medium"
SLANT "R"
SETWIDTH_NAME "Normal"
ADD_STYLE_NAME ""
CHARSET_REGISTRY "iso8859"
CHARSET_ENCODING "1"
ENDPROPERTIES
CHARS 96
STARTCHAR char0
ENCODING 0
SWIDTH 437 0
DWIDTH 7 0
BBX 0 0 0 0
BITMAP
ENDCHAR
STARTCHAR char32
ENCODING 32
SWIDTH 437 0
DWIDTH 7 0
BBX 0 0 0 0
BITMAP
ENDCHAR
STARTCHAR char33
ENCODING 33
SWIDTH 437 0
DWIDTH 7 0
BBX 1 9 3 0
BITMAP
80
80
80
80
80
80
00
80
80
ENDCHAR
STARTCHAR char34
ENCODING 34
SWIDTH 437 0
DWIDTH 7 0
BBX 5 3 1 6
BITMAP
88
88
88
ENDCHAR
STARTCHAR char35
ENCODING 35
SWIDTH 437 0
DWIDTH 7 0
BBX 5 8 1 0
BITMAP
50
50
F8
50
50
F8
50
50
ENDCHAR
STARTCHAR char36
ENCODING 36
SWIDTH 437 0
DWIDTH 7 0
BBX 5 9 1 0
BITMAP
20
70
A8
A0
70
28
A8
70
20
ENDCHAR
STARTCHAR char37
ENCODING 37
SWIDTH 437 0
DWIDTH 7 0
BBX 5 9 1 0
BITMAP
48
A8
50
10
20
40
50
A8
90
ENDCHAR
STARTCHAR char38
ENCODING 38
SWIDTH 437 0
DWIDTH 7 0
BBX 5 9 1 0
BITMAP
60
90
90
60
40
68
90
90
68
ENDCHAR
STARTCHAR char39
ENCODING 39
SWIDTH 437 0
DWIDTH 7 0
BBX 1 3 3 6
BITMAP
80
80
80
ENDCHAR
STARTCHAR char40
ENCODING 40
SWIDTH 437 0
DWIDTH 7 0
BBX 4 11 1 -1
BITMAP
10
20
40
40
80
80
80
40
40
20
10
ENDCHAR
STARTCHAR char41
ENCODING 41
SWIDTH 437 0
DWIDTH 7 0
BBX 4 11 1 -1
BITMAP
80
40
20
20
10
10
10
20
20
40
80
ENDCHAR
STARTCHAR char42
ENCODING 42
SWIDTH 437 0
DWIDTH 7 0
BBX 5 5 1 2
BITMAP
20
A8
70
A8
20
ENDCHAR
STARTCHAR char43
ENCODING 43
SWIDTH 437 0
DWIDTH 7 0
BBX 5 5 1 2
BITMAP
20
20
F8
20
20
ENDCHAR
STARTCHAR char44
ENCODING 44
SWIDTH 437 0
DWIDTH 7 0
BBX 2 4 2 -2
BITMAP
C0
C0
40
80
ENDCHAR
STARTCHAR char45
ENCODING 45
SWIDTH 437 0
DWIDTH 7 0
BBX 5 1 1 4
BITMAP
F8
ENDCHAR
STARTCHAR char46
ENCODING 46
SWIDTH 437 0
DWIDTH 7 0
BBX 2 2 2 0
BITMAP
C0
C0
ENDCHAR
STARTCHAR char47
ENCODING 47
SWIDTH 437 0
DWIDTH 7 0
BBX 5 9 1 0
BITMAP
08
08
10
10
20
40
40
80
80
ENDCHAR
STARTCHAR char48
ENCODING 48
SWIDTH 437 0
DWIDTH 7 0
BBX 5 9 1 0
BITMAP
70
88
88
98
A8
C8
88
88
70
ENDCHAR
STARTCHAR char49
ENCODING 49
SWIDTH 437 0
DWIDTH 7 0
BBX 5 9 1 0
BITMAP
20
60
A0
20
20
20
20
20
F8
ENDCHAR
STARTCHAR char50
ENCODING 50
SWIDTH 437 0
DWIDTH 7 0
BBX 5 9 1 0
BITMAP
70
88
88
08
30
40
80
80
F8
ENDCHAR
STARTCHAR char51
ENCODING 51
SWIDTH 437 0
DWIDTH 7 0
BBX 5 9 1 0
BITMAP
70
88
88
08
30
08
88
88
70
ENDCHAR
STARTCHAR char52
ENCODING 52
SWIDTH 437 0
DWIDTH 7 0
BBX 5 9 1 0
BITMAP
10
30
50
90
F8
10
10
10
10
ENDCHAR
STARTCHAR char53
ENCODING 53
SWIDTH 437 0
DWIDTH 7 0
BBX 5 9 1 0
BITMAP
F8
80
80
F0
08
08
08
88
70
ENDCHAR
STARTCHAR char54
ENCODING 54
SWIDTH 437 0
DWIDTH 7 0
BBX 5 9 1 0
BITMAP
70
88
80
F0
88
88
88
88
70
ENDCHAR
STARTCHAR char55
ENCODING 55
SWIDTH 437 0
DWIDTH 7 0
BBX 5 9 1 0
BITMAP
F8
08
08
10
10
10
20
20
20
ENDCHAR
STARTCHAR char56
ENCODING 56
SWIDTH 437 0
DWIDTH 7 0
BBX 5 9 1 0
BITMAP
70
88
88
88
70
88
88
88
70
ENDCHAR
STARTCHAR char57
ENCODING 57
SWIDTH 437 0
DWIDTH 7 0
BBX 5 9 1 0
BITMAP
70
88
88
88
78
08
08
88
70
ENDCHAR
STARTCHAR char58
ENCODING 58
SWIDTH 437 0
DWIDTH 7 0
BBX 2 5 2 0
BITMAP
C0
C0
00
C0
C0
ENDCHAR
STARTCHAR char59
ENCODING 59
SWIDTH 437 0
DWIDTH 7 0
BBX 2 7 2 -2
BITMAP
C0
C0
00
C0
C0
40
80
ENDCHAR
STARTCHAR char60
ENCODING 60
SWIDTH 437 0
DWIDTH 7 0
BBX 5 9 1 0
BITMAP
08
10
20
40
80
40
20
10
08
ENDCHAR
STARTCHAR char61
ENCODING 61
SWIDTH 437 0
DWIDTH 7 0
BBX 5 5 1 2
BITMAP
F8
00
00
00
F8
ENDCHAR
STARTCHAR char62
ENCODING 62
SWIDTH 437 0
DWIDTH 7 0
BBX 5 9 1 0
BITMAP
80
40
20
10
08
10
20
40
80
ENDCHAR
STARTCHAR char63
ENCODING 63
SWIDTH 437 0
DWIDTH 7 0
BBX 5 9 1 0
BITMAP
70
88
88
08
30
20
00
20
20
ENDCHAR
STARTCHAR char64
ENCODING 64
SWIDTH 437 0
DWIDTH 7 0
BBX 5 9 1 0
BITMAP
70
88
88
B8
A8
B8
80
80
78
ENDCHAR
STARTCHAR char65
ENCODING 65
SWIDTH 437 0
DWIDTH 7 0
BBX 5 9 1 0
BITMAP
70
88
88
88
F8
88
88
88
88
ENDCHAR
STARTCHAR char66
ENCODING 66
SWIDTH 437 0
DWIDTH 7 0
BBX 5 9 1 0
BITMAP
F0
88
88
88
F0
88
88
88
F0
ENDCHAR
STARTCHAR char67
ENCODING 67
SWIDTH 437 0
DWIDTH 7 0
BBX 5 9 1 0
BITMAP
70
88
88
80
80
80
88
88
70
ENDCHAR
STARTCHAR char68
ENCODING 68
SWIDTH 437 0
DWIDTH 7 0
BBX 5 9 1 0
BITMAP
E0
90
88
88
88
88
88
90
E0
ENDCHAR
STARTCHAR char69
ENCODING 69
SWIDTH 437 0
DWIDTH 7 0
BBX 5 9 1 0
BITMAP
F8
80
80
80
F8
80
80
80
F8
ENDCHAR
STARTCHAR char70
ENCODING 70
SWIDTH 437 0
DWIDTH 7 0
BBX 5 9 1 0
BITMAP
F8
80
80
80
F8
80
80
80
80
ENDCHAR
STARTCHAR char71
ENCODING 71
SWIDTH 437 0
DWIDTH 7 0
BBX 5 9 1 0
BITMAP
70
88
80
80
B8
88
88
98
68
ENDCHAR
STARTCHAR char72
ENCODING 72
SWIDTH 437 0
DWIDTH 7 0
BBX 5 9 1 0
BITMAP
88
88
88
88
F8
88
88
88
88
ENDCHAR
STARTCHAR char73
ENCODING 73
SWIDTH 437 0
DWIDTH 7 0
BBX 5 9 1 0
BITMAP
F8
20
20
20
20
20
20
20
F8
ENDCHAR
STARTCHAR char74
ENCODING 74
SWIDTH 437 0
DWIDTH 7 0
BBX 5 9 1 0
BITMAP
08
08
08
08
08
08
88
88
70
ENDCHAR
STARTCHAR char75
ENCODING 75
SWIDTH 437 0
DWIDTH 7 0
BBX 5 9 1 0
BITMAP
80
88
90
A0
C0
C0
A0
90
88
ENDCHAR
STARTCHAR char76
ENCODING 76
SWIDTH 437 0
DWIDTH 7 0
BBX 5 9 1 0
BITMAP
80
80
80
80
80
80
80
80
F8
ENDCHAR
STARTCHAR char77
ENCODING 77
SWIDTH 437 0
DWIDTH 7 0
BBX 5 9 1 0
BITMAP
88
D8
D8
A8
A8
88
88
88
88
ENDCHAR
STARTCHAR char78
ENCODING 78
SWIDTH 437 0
DWIDTH 7 0
BBX 5 9 1 0
BITMAP
88
C8
C8
A8
A8
98
98
88
88
ENDCHAR
STARTCHAR char79
ENCODING 79
SWIDTH 437 0
DWIDTH 7 0
BBX 5 9 1 0
BITMAP
70
88
88
88
88
88
88
88
70
ENDCHAR
STARTCHAR char80
ENCODING 80
SWIDTH 437 0
DWIDTH 7 0
BBX 5 9 1 0
BITMAP
F0
88
88
88
F0
80
80
80
80
ENDCHAR
STARTCHAR char81
ENCODING 81
SWIDTH 437 0
DWIDTH 7 0
BBX 5 10 1 -1
BITMAP
70
88
88
88
88
A8
A8
90
68
08
ENDCHAR
STARTCHAR char82
ENCODING 82
SWIDTH 437 0
DWIDTH 7 0
BBX 5 9 1 0
BITMAP
F0
88
88
88
F8
90
90
88
88
ENDCHAR
STARTCHAR char83
ENCODING 83
SWIDTH 437 0
DWIDTH 7 0
BBX 5 9 1 0
BITMAP
70
88
80
80
70
08
08
88
70
ENDCHAR
STARTCHAR char84
ENCODING 84
SWIDTH 437 0
DWIDTH 7 0
BBX 5 9 1 0
BITMAP
F8
20
20
20
20
20
20
20
20
ENDCHAR
STARTCHAR char85
ENCODING 85
SWIDTH 437 0
DWIDTH 7 0
BBX 5 9 1 0
BITMAP
88
88
88
88
88
88
88
88
70
ENDCHAR
STARTCHAR char86
ENCODING 86
SWIDTH 437 0
DWIDTH 7 0
BBX 5 9 1 0
BITMAP
88
88
88
50
50
50
20
20
20
ENDCHAR
STARTCHAR char87
ENCODING 87
SWIDTH 437 0
DWIDTH 7 0
BBX 5 9 1 0
BITMAP
88
88
88
A8
A8
A8
50
50
50
ENDCHAR
STARTCHAR char88
ENCODING 88
SWIDTH 437 0
DWIDTH 7 0
BBX 5 9 1 0
BITMAP
88
88
88
50
20
50
88
88
88
ENDCHAR
STARTCHAR char89
ENCODING 89
SWIDTH 437 0
DWIDTH 7 0
BBX 5 9 1 0
BITMAP
88
88
88
50
50
20
20
20
20
ENDCHAR
STARTCHAR char90
ENCODING 90
SWIDTH 437 0
DWIDTH 7 0
BBX 5 9 1 0
BITMAP
F8
08
08
10
20
40
80
80
F8
ENDCHAR
STARTCHAR char91
ENCODING 91
SWIDTH 437 0
DWIDTH 7 0
BBX 3 11 2 -1
BITMAP
E0
80
80
80
80
80
80
80
80
80
E0
ENDCHAR
STARTCHAR char92
ENCODING 92
SWIDTH 437 0
DWIDTH 7 0
BBX 5 9 1 0
BITMAP
80
80
40
40
20
10
10
08
08
ENDCHAR
STARTCHAR char93
ENCODING 93
SWIDTH 437 0
DWIDTH 7 0
BBX 3 11 2 -1
BITMAP
E0
20
20
20
20
20
20
20
20
20
E0
ENDCHAR
STARTCHAR char94
ENCODING 94
SWIDTH 437 0
DWIDTH 7 0
BBX 5 3 1 6
BITMAP
20
50
88
ENDCHAR
STARTCHAR char95
ENCODING 95
SWIDTH 437 0
DWIDTH 7 0
BBX 5 1 1 -1
BITMAP
F8
ENDCHAR
STARTCHAR char96
ENCODING 96
SWIDTH 437 0
DWIDTH 7 0
BBX 3 3 1 6
BITMAP
80
40
20
ENDCHAR
STARTCHAR char97
ENCODING 97
SWIDTH 437 0
DWIDTH 7 0
BBX 5 6 1 0
BITMAP
78
88
88
88
98
68
ENDCHAR
STARTCHAR char98
ENCODING 98
SWIDTH 437 0
DWIDTH 7 0
BBX 5 9 1 0
BITMAP
80
80
80
F0
88
88
88
88
F0
ENDCHAR
STARTCHAR char99
ENCODING 99
SWIDTH 437 0
DWIDTH 7 0
BBX 5 6 1 0
BITMAP
70
88
80
80
88
70
ENDCHAR
STARTCHAR char100
ENCODING 100
SWIDTH 437 0
DWIDTH 7 0
BBX 5 9 1 0
BITMAP
08
08
08
78
88
88
88
88
78
ENDCHAR
STARTCHAR char101
ENCODING 101
SWIDTH 437 0
DWIDTH 7 0
BBX 5 6 1 0
BITMAP
70
88
F8
80
88
70
ENDCHAR
STARTCHAR char102
ENCODING 102
SWIDTH 437 0
DWIDTH 7 0
BBX 5 9 1 0
BITMAP
18
20
20
20
F8
20
20
20
20
ENDCHAR
STARTCHAR char103
ENCODING 103
SWIDTH 437 0
DWIDTH 7 0
BBX 5 9 1 -3
BITMAP
78
88
88
88
88
78
08
08
70
ENDCHAR
STARTCHAR char104
ENCODING 104
SWIDTH 437 0
DWIDTH 7 0
BBX 5 9 1 0
BITMAP
80
80
80
B0
C8
88
88
88
88
ENDCHAR
STARTCHAR char105
ENCODING 105
SWIDTH 437 0
DWIDTH 7 0
BBX 5 9 1 0
BITMAP
20
20
00
E0
20
20
20
20
F8
ENDCHAR
STARTCHAR char106
ENCODING 106
SWIDTH 437 0
DWIDTH 7 0
BBX 4 11 0 -2
BITMAP
10
10
00
70
10
10
10
10
10
90
60
ENDCHAR
STARTCHAR char107
ENCODING 107
SWIDTH 437 0
DWIDTH 7 0
BBX 5 9 1 0
BITMAP
80
80
88
90
A0
C0
A0
90
88
ENDCHAR
STARTCHAR char108
ENCODING 108
SWIDTH 437 0
DWIDTH 7 0
BBX 5 9 1 0
BITMAP
E0
20
20
20
20
20
20
20
F8
ENDCHAR
STARTCHAR char109
ENCODING 109
SWIDTH 437 0
DWIDTH 7 0
BBX 5 6 1 0
BITMAP
F0
A8
A8
A8
A8
A8
ENDCHAR
STARTCHAR char110
ENCODING 110
SWIDTH 437 0
DWIDTH 7 0
BBX 5 6 1 0
BITMAP
B0
C8
88
88
88
88
ENDCHAR
STARTCHAR char111
ENCODING 111
SWIDTH 437 0
DWIDTH 7 0
BBX 5 6 1 0
BITMAP
70
88
88
88
88
70
ENDCHAR
STARTCHAR char112
ENCODING 112
SWIDTH 437 0
DWIDTH 7 0
BBX 5 9 1 -3
BITMAP
F0
88
88
88
88
F0
80
80
80
ENDCHAR
STARTCHAR char113
ENCODING 113
SWIDTH 437 0
DWIDTH 7 0
BBX 5 9 1 -3
BITMAP
78
88
88
88
88
78
08
08
08
ENDCHAR
STARTCHAR char114
ENCODING 114
SWIDTH 437 0
DWIDTH 7 0
BBX 5 6 1 0
BITMAP
B0
C8
88
80
80
80
ENDCHAR
STARTCHAR char115
ENCODING 115
SWIDTH 437 0
DWIDTH 7 0
BBX 5 6 1 0
BITMAP
70
88
70
08
88
70
ENDCHAR
STARTCHAR char116
ENCODING 116
SWIDTH 437 0
DWIDTH 7 0
BBX 5 9 1 0
BITMAP
20
20
20
F8
20
20
20
20
18
ENDCHAR
STARTCHAR char117
ENCODING 117
SWIDTH 437 0
DWIDTH 7 0
BBX 5 6 1 0
BITMAP
88
88
88
88
88
78
ENDCHAR
STARTCHAR char118
ENCODING 118
SWIDTH 437 0
DWIDTH 7 0
BBX 5 6 1 0
BITMAP
88
88
50
50
20
20
ENDCHAR
STARTCHAR char119
ENCODING 119
SWIDTH 437 0
DWIDTH 7 0
BBX 5 6 1 0
BITMAP
88
A8
A8
50
50
50
ENDCHAR
STARTCHAR char120
ENCODING 120
SWIDTH 437 0
DWIDTH 7 0
BBX 5 6 1 0
BITMAP
88
50
20
20
50
88
ENDCHAR
STARTCHAR char121
ENCODING 121
SWIDTH 437 0
DWIDTH 7 0
BBX 5 9 1 -3
BITMAP
88
88
88
88
88
78
08
08
70
ENDCHAR
STARTCHAR char122
ENCODING 122
SWIDTH 437 0
DWIDTH 7 0
BBX 5 6 1 0
BITMAP
F8
08
10
20
40
F8
ENDCHAR
STARTCHAR char123
ENCODING 123
SWIDTH 437 0
DWIDTH 7 0
BBX 5 11 1 -1
BITMAP
18
20
20
20
10
E0
10
20
20
20
18
ENDCHAR
STARTCHAR char124
ENCODING 124
SWIDTH 437 0
DWIDTH 7 0
BBX 1 10 3 -1
BITMAP
80
80
80
80
80
80
80
80
80
80
ENDCHAR
STARTCHAR char125
ENCODING 125
SWIDTH 437 0
DWIDTH 7 0
BBX 5 11 1 -1
BITMAP
C0
20
20
20
40
38
40
20
20
20
C0
ENDCHAR
STARTCHAR char126
ENCODING 126
SWIDTH 437 0
DWIDTH 7 0
BBX 7 3 0 2
BITMAP
62
92
8C
ENDCHAR
ENDFONT
